REM DIRINDEX 1\2,1\4,1\5,1\6,1\7,1\3\8,1\3\9,1\3\10
REM DIRNAME folder01,folder02,folder03,folder04,folder05,folder06,folder07,folder08,folder09,folder10
TITLE ""
FILE "DB4500_5th_5C_04.mp3" MP3
  TRACK 01 AUDIO
    TITLE "8:cjc113_3525"
    INDEX 01 00:00:00
  TRACK 02 AUDIO
    TITLE "0:"
    INDEX 01 00:01:17
  TRACK 03 AUDIO
    TITLE "9:cjc113_3526"
    INDEX 01 00:01:26
  TRACK 04 AUDIO
    TITLE "0:"
    INDEX 01 00:02:36
  TRACK 05 AUDIO
    TITLE "10:cjc113_3527"
    INDEX 01 00:02:45
  TRACK 06 AUDIO
    TITLE "0:"
    INDEX 01 00:05:10
  TRACK 07 AUDIO
    TITLE "8:cjc113_3528"
    INDEX 01 00:05:42
  TRACK 08 AUDIO
    TITLE "0:"
    INDEX 01 00:06:51
  TRACK 09 AUDIO
    TITLE "9:cjc113_3529"
    INDEX 01 00:06:57
  TRACK 10 AUDIO
    TITLE "0:"
    INDEX 01 00:10:19
  TRACK 11 AUDIO
    TITLE "10:cjc113_3530"
    INDEX 01 00:10:33
  TRACK 12 AUDIO
    TITLE "0:"
    INDEX 01 00:13:35
  TRACK 13 AUDIO
    TITLE "8:cjc113_3531"
    INDEX 01 00:13:67
  TRACK 14 AUDIO
    TITLE "0:"
    INDEX 01 00:15:07
  TRACK 15 AUDIO
    TITLE "9:cjc113_3532"
    INDEX 01 00:15:15
  TRACK 16 AUDIO
    TITLE "0:"
    INDEX 01 00:16:38
  TRACK 17 AUDIO
    TITLE "10:cjc113_3533"
    INDEX 01 00:16:48
  TRACK 18 AUDIO
    TITLE "0:"
    INDEX 01 00:19:40
  TRACK 19 AUDIO
    TITLE "8:cjc113_3534"
    INDEX 01 00:19:67
  TRACK 20 AUDIO
    TITLE "0:"
    INDEX 01 00:20:73
  TRACK 21 AUDIO
    TITLE "9:cjc113_3535"
    INDEX 01 00:21:08
  TRACK 22 AUDIO
    TITLE "0:"
    INDEX 01 00:22:23
  TRACK 23 AUDIO
    TITLE "10:cjc113_3536"
    INDEX 01 00:22:30
  TRACK 24 AUDIO
    TITLE "0:"
    INDEX 01 00:24:57
  TRACK 25 AUDIO
    TITLE "8:cjc113_3537"
    INDEX 01 00:25:11
  TRACK 26 AUDIO
    TITLE "0:"
    INDEX 01 00:26:18
  TRACK 27 AUDIO
    TITLE "9:cjc113_3538"
    INDEX 01 00:26:26
  TRACK 28 AUDIO
    TITLE "0:"
    INDEX 01 00:27:39
  TRACK 29 AUDIO
    TITLE "10:cjc113_3539"
    INDEX 01 00:27:47
  TRACK 30 AUDIO
    TITLE "0:"
    INDEX 01 00:30:42
  TRACK 31 AUDIO
    TITLE "8:cjc113_3540"
    INDEX 01 00:30:71
  TRACK 32 AUDIO
    TITLE "0:"
    INDEX 01 00:32:21
  TRACK 33 AUDIO
    TITLE "9:cjc113_3541"
    INDEX 01 00:32:31
  TRACK 34 AUDIO
    TITLE "0:"
    INDEX 01 00:33:58
  TRACK 35 AUDIO
    TITLE "10:cjc113_3542"
    INDEX 01 00:33:66
  TRACK 36 AUDIO
    TITLE "0:"
    INDEX 01 00:38:12
  TRACK 37 AUDIO
    TITLE "8:cjc113_3543"
    INDEX 01 00:38:45
  TRACK 38 AUDIO
    TITLE "0:"
    INDEX 01 00:39:66
  TRACK 39 AUDIO
    TITLE "9:cjc113_3544"
    INDEX 01 00:40:01
  TRACK 40 AUDIO
    TITLE "0:"
    INDEX 01 00:41:26
  TRACK 41 AUDIO
    TITLE "10:cjc113_3545"
    INDEX 01 00:41:32
  TRACK 42 AUDIO
    TITLE "0:"
    INDEX 01 00:45:53
  TRACK 43 AUDIO
    TITLE "8:cjc113_3546"
    INDEX 01 00:46:09
  TRACK 44 AUDIO
    TITLE "0:"
    INDEX 01 00:47:21
  TRACK 45 AUDIO
    TITLE "9:cjc113_3547"
    INDEX 01 00:47:30
  TRACK 46 AUDIO
    TITLE "0:"
    INDEX 01 00:48:73
  TRACK 47 AUDIO
    TITLE "10:cjc113_3548"
    INDEX 01 00:49:06
  TRACK 48 AUDIO
    TITLE "0:"
    INDEX 01 00:52:30
  TRACK 49 AUDIO
    TITLE "8:cjc113_3549"
    INDEX 01 00:52:63
  TRACK 50 AUDIO
    TITLE "0:"
    INDEX 01 00:54:25
  TRACK 51 AUDIO
    TITLE "9:cjc113_3550"
    INDEX 01 00:54:34
  TRACK 52 AUDIO
    TITLE "0:"
    INDEX 01 00:55:59
  TRACK 53 AUDIO
    TITLE "10:cjc113_3551"
    INDEX 01 00:55:65
  TRACK 54 AUDIO
    TITLE "0:"
    INDEX 01 00:59:57
  TRACK 55 AUDIO
    TITLE "8:cjc113_3552"
    INDEX 01 01:00:23
  TRACK 56 AUDIO
    TITLE "0:"
    INDEX 01 01:01:42
  TRACK 57 AUDIO
    TITLE "9:cjc113_3553"
    INDEX 01 01:01:50
  TRACK 58 AUDIO
    TITLE "0:"
    INDEX 01 01:03:00
  TRACK 59 AUDIO
    TITLE "10:cjc113_3554"
    INDEX 01 01:03:08
  TRACK 60 AUDIO
    TITLE "0:"
    INDEX 01 01:07:45
  TRACK 61 AUDIO
    TITLE "8:cjc113_3555"
    INDEX 01 01:08:01
  TRACK 62 AUDIO
    TITLE "0:"
    INDEX 01 01:09:20
  TRACK 63 AUDIO
    TITLE "9:cjc113_3556"
    INDEX 01 01:09:24
  TRACK 64 AUDIO
    TITLE "0:"
    INDEX 01 01:10:59
  TRACK 65 AUDIO
    TITLE "10:cjc113_3557"
    INDEX 01 01:10:71
  TRACK 66 AUDIO
    TITLE "0:"
    INDEX 01 01:14:25
  TRACK 67 AUDIO
    TITLE "8:cjc113_3558"
    INDEX 01 01:14:57
  TRACK 68 AUDIO
    TITLE "0:"
    INDEX 01 01:15:66
  TRACK 69 AUDIO
    TITLE "9:cjc113_3559"
    INDEX 01 01:16:01
  TRACK 70 AUDIO
    TITLE "0:"
    INDEX 01 01:17:26
  TRACK 71 AUDIO
    TITLE "10:cjc113_3560"
    INDEX 01 01:17:32
  TRACK 72 AUDIO
    TITLE "0:"
    INDEX 01 01:20:22
